<?xml version="1.0" standalone="no"?>
<!DOCTYPE svg PUBLIC "-//W3C//DTD SVG 20010904//EN"
 "http://www.w3.org/TR/2001/REC-SVG-20010904/DTD/svg10.dtd">
<svg version="1.0" xmlns="http://www.w3.org/2000/svg"
 width="128.000000pt" height="128.000000pt" viewBox="0 0 128.000000 128.000000"
 preserveAspectRatio="xMidYMid meet">
<metadata>
Created by potrace 1.11, written by Peter Selinger 2001-2013
</metadata>
<g transform="translate(0.000000,128.000000) scale(0.100000,-0.100000)"
fill="#000000" stroke="none">
<path d="M305 1140 c-46 -10 -72 -27 -102 -66 -33 -44 -41 -136 -12 -142 12
-2 15 3 12 20 -5 33 17 70 52 84 25 10 40 9 90 -7 67 -21 114 -24 163 -10 36
11 41 2 14 -22 -22 -20 -61 -97 -69 -134 -3 -16 -5 -56 -6 -90 l0 -63 -42 0
c-49 0 -103 -20 -128 -48 -17 -18 -17 -20 -1 -26 10 -4 22 -2 28 4 15 15 89
12 114 -6 25 -17 42 -45 48 -79 4 -22 2 -23 -53 -19 -47 4 -63 1 -82 -14 -32
-26 -19 -42 29 -37 48 4 85 -21 96 -68 18 -76 -13 -129 -139 -231 -67 -55 -62
-73 11 -39 31 14 65 26 75 27 9 0 17 3 17 7 0 12 49 16 59 6 19 -19 41 -16 52
6 9 19 8 20 -3 7 -12 -14 -21 -16 -45 -11 -5 1 0 6 10 12 26 15 117 22 117 8
0 -5 -4 -7 -10 -4 -6 4 -7 -1 -3 -11 5 -13 3 -15 -7 -9 -9 5 -11 4 -6 -3 11
-18 16 -15 31 21 8 17 14 26 15 19 0 -10 5 -10 20 -2 11 6 20 7 20 2 0 -5 18
-8 40 -6 22 2 40 -2 40 -7 0 -6 4 -8 9 -5 5 4 11 2 13 -4 2 -6 13 -12 26 -15
12 -2 20 0 17 5 -3 6 1 7 9 4 9 -3 13 -10 10 -16 -3 -5 0 -8 7 -7 23 5 60 -12
53 -23 -4 -7 -2 -8 5 -4 6 4 18 3 25 -3 15 -12 67 -11 60 1 -5 8 11 12 29 9 5
-1 6 3 3 8 -3 5 19 32 50 60 39 35 55 55 50 66 -5 14 -11 11 -38 -14 -18 -17
-36 -31 -40 -31 -3 0 -40 18 -82 41 -41 22 -84 41 -95 42 -11 0 -17 5 -14 11
4 5 1 6 -8 0 -25 -15 -60 -11 -74 9 -8 11 -12 25 -8 30 3 5 9 3 14 -4 5 -8 9
-10 9 -6 0 5 -14 22 -30 37 -17 15 -30 24 -30 20 0 -5 4 -11 10 -15 5 -3 7
-12 4 -20 -4 -8 -10 -12 -15 -9 -5 3 -7 10 -4 15 3 5 -2 6 -11 2 -15 -6 -15
-4 1 21 11 16 24 25 32 22 8 -4 19 -6 24 -6 5 0 9 -5 9 -11 0 -5 -5 -7 -12 -3
-7 4 -8 3 -4 -5 4 -6 11 -9 16 -6 4 3 10 1 12 -4 1 -5 10 -2 18 7 13 14 12 15
-3 9 -21 -8 -22 6 -3 22 10 8 16 9 19 1 3 -6 5 -6 3 1 -1 7 -10 13 -19 15 -9
1 -15 -2 -12 -6 3 -5 1 -11 -5 -15 -5 -3 -10 -2 -10 4 0 6 -7 8 -15 5 -21 -8
-19 12 3 34 21 21 51 92 58 137 5 36 5 168 -1 210 -19 132 -13 208 18 239 18
18 66 42 102 50 28 7 29 9 12 21 -16 12 -52 12 -107 1 -35 -6 -87 -35 -112
-62 -56 -60 -67 -122 -52 -279 15 -163 0 -317 -30 -311 -6 2 -8 1 -3 -1 14 -9
6 -31 -29 -77 -19 -25 -39 -44 -45 -41 -5 3 -6 0 -4 -8 3 -7 -9 -26 -27 -42
-18 -15 -41 -35 -50 -43 -21 -17 -24 -10 -5 10 18 20 57 76 57 83 0 3 9 24 20
48 11 23 24 63 28 89 10 52 8 195 -3 278 -21 148 1 237 74 303 26 24 36 39 30
48 -6 11 -16 9 -49 -10 -51 -28 -109 -29 -192 -3 -85 27 -108 31 -143 22z
m402 -765 c20 -14 23 -14 33 2 9 15 11 15 7 2 -3 -9 1 -26 9 -38 8 -11 11 -21
6 -21 -6 0 -13 7 -16 16 -3 8 -10 13 -15 9 -6 -3 -14 3 -20 12 -8 14 -10 15
-11 3 0 -13 -2 -13 -11 0 -9 13 -10 12 -5 -2 3 -10 0 -18 -6 -18 -6 0 -8 -3
-5 -6 4 -4 13 -1 22 6 8 7 15 10 15 6 0 -3 0 -9 0 -13 0 -4 -12 -8 -27 -9 -16
-1 -44 -5 -63 -10 -19 -4 -33 -5 -30 -3 3 2 20 18 39 34 19 17 31 24 27 18 -4
-7 -2 -13 3 -13 6 0 11 9 11 20 0 24 8 25 37 5z"/>
<path d="M835 491 c-3 -5 -2 -12 3 -15 5 -3 9 1 9 9 0 17 -3 19 -12 6z"/>
<path d="M780 480 c-9 -6 -10 -10 -3 -10 6 0 15 5 18 10 8 12 4 12 -15 0z"/>
<path d="M810 483 c0 -6 8 -17 18 -24 16 -13 16 -13 2 6 -8 11 -16 22 -17 24
-2 2 -3 0 -3 -6z"/>
<path d="M955 458 c5 -20 4 -21 -6 -7 -11 15 -14 14 -35 -4 -13 -11 -20 -25
-16 -31 11 -19 11 -37 -1 -33 -7 2 -12 9 -12 14 0 6 -4 15 -9 20 -5 5 -6 3 -2
-4 4 -8 2 -13 -6 -13 -8 0 -6 -5 5 -11 14 -8 16 -14 6 -25 -6 -7 -15 -11 -20
-8 -5 3 -6 -2 -3 -10 8 -20 9 -20 39 0 28 19 34 8 8 -13 -16 -13 -16 -13 5 -3
12 6 22 18 22 26 0 11 6 14 16 10 8 -3 13 -2 9 3 -3 5 1 12 7 15 7 3 3 3 -9 0
-17 -4 -21 -2 -17 9 3 8 13 14 22 12 9 -1 11 0 5 2 -7 3 -13 9 -13 14 0 6 4 8
8 5 5 -3 8 8 8 25 0 16 -4 29 -8 29 -5 0 -7 -10 -3 -22z m-17 -43 c-6 -14 -15
-25 -20 -25 -5 0 -7 4 -3 9 3 5 0 13 -6 17 -9 5 -7 11 6 20 25 19 36 8 23 -21z
m-9 -38 c-2 -2 -17 -11 -34 -21 l-30 -17 24 20 c13 12 28 21 34 21 6 0 8 -1 6
-3z"/>
<path d="M990 470 c-9 -6 -10 -10 -3 -10 6 0 15 5 18 10 8 12 4 12 -15 0z"/>
<path d="M556 197 c3 -10 9 -15 12 -12 3 3 0 11 -7 18 -10 9 -11 8 -5 -6z"/>
<path d="M643 203 c-7 -2 -13 -10 -13 -16 0 -8 4 -7 12 1 14 14 32 16 24 3 -4
-5 4 -7 16 -3 21 5 21 6 2 13 -22 9 -25 9 -41 2z"/>
<path d="M710 200 c0 -4 12 -12 28 -19 23 -10 25 -9 10 2 -10 8 -16 16 -13 19
3 2 -2 5 -10 5 -8 0 -15 -3 -15 -7z"/>
<path d="M457 169 c7 -7 15 -10 18 -7 3 3 -2 9 -12 12 -14 6 -15 5 -6 -5z"/>
</g>
</svg>
